<svg xmlns="http://www.w3.org/2000/svg" xmlns:xlink="http://www.w3.org/1999/xlink" viewBox="0 0 128 128"><defs><style>.cls-1{isolation:isolate;}.cls-2{fill:#333;opacity:0.15;}.cls-3{fill:url(#radial-gradient);}.cls-4{fill:url(#radial-gradient-2);}.cls-5{opacity:0.25;mix-blend-mode:multiply;}.cls-6{fill:#fff;}</style><radialGradient id="radial-gradient" cx="-1617.25" cy="-286.66" r="56" gradientTransform="translate(-876.87 -1282.27) rotate(-135)" gradientUnits="userSpaceOnUse"><stop offset="0" stop-color="#f074ac"/><stop offset="0.5" stop-color="#eb008b"/><stop offset="1" stop-color="#cd118c"/></radialGradient><radialGradient id="radial-gradient-2" cx="-1617.25" cy="-270.66" r="56.57" gradientTransform="translate(-876.87 -1282.27) rotate(-135)" gradientUnits="userSpaceOnUse"><stop offset="0" stop-color="#b07eb7"/><stop offset="0.5" stop-color="#8c3d96"/><stop offset="1" stop-color="#762a90"/></radialGradient></defs><g class="cls-1"><g id="Layer_1" data-name="Layer 1"><circle class="cls-2" cx="64" cy="64" r="64"/><circle class="cls-3" cx="64" cy="64" r="56"/><path class="cls-4" d="M96.51,119.15A64,64,0,1,0,8.85,31.49,127.47,127.47,0,0,0,41.37,86.63,127.47,127.47,0,0,0,96.51,119.15Z"/><g class="cls-5"><path d="M47.85,38.7a74.5,74.5,0,0,1,11.76-.84c7.56,0,12.78,1.56,16.5,4.68,3.9,3.18,6.3,8,6.3,14.88,0,7.2-2.46,12.6-6.3,16.08-4,3.66-10.44,5.52-18.3,5.52a80.59,80.59,0,0,1-10-.54ZM55.23,73a27.49,27.49,0,0,0,4.08.18c9.6.06,15.3-5.22,15.3-15.48.06-8.94-5.1-14-14.34-14a23.61,23.61,0,0,0-5,.42Z"/><path d="M96.21,38.16V78.6H88.83V38.16Z"/></g><path class="cls-6" d="M47.85,42.7a74.5,74.5,0,0,1,11.76-.84c7.56,0,12.78,1.56,16.5,4.68,3.9,3.18,6.3,8,6.3,14.88,0,7.2-2.46,12.6-6.3,16.08-4,3.66-10.44,5.52-18.3,5.52a80.59,80.59,0,0,1-10-.54ZM55.23,77a27.49,27.49,0,0,0,4.08.18c9.6.06,15.3-5.22,15.3-15.48.06-8.94-5.1-14-14.34-14a23.61,23.61,0,0,0-5,.42Z"/><path class="cls-6" d="M96.21,42.16V82.6H88.83V42.16Z"/></g></g></svg>